<?xml version="1.0" encoding="iso-8859-1"?>
<!-- Generator: Adobe Illustrator 18.0.0, SVG Export Plug-In . SVG Version: 6.00 Build 0)  -->
<!DOCTYPE svg PUBLIC "-//W3C//DTD SVG 1.1//EN" "http://www.w3.org/Graphics/SVG/1.1/DTD/svg11.dtd">
<svg xmlns="http://www.w3.org/2000/svg" xmlns:xlink="http://www.w3.org/1999/xlink" version="1.1" id="Capa_1" x="0px" y="0px" viewBox="0 0 48.066 48.066" style="enable-background:new 0 0 48.066 48.066;" xml:space="preserve" width="512px" height="512px">
<path d="M43.737,17.672l-4.706,0.033l-0.032-4.707c-0.011-1.456-0.968-2.682-2.289-3.13V1c0-0.552-0.447-1-1-1H1.96  c-0.553,0-1,0.448-1,1v46.065c0,0.401,0.239,0.763,0.608,0.92s0.797,0.078,1.085-0.2l16.182-15.582l16.182,15.582  c0.189,0.183,0.439,0.28,0.693,0.28c0.132,0,0.266-0.026,0.392-0.08c0.369-0.157,0.608-0.52,0.608-0.92V32.319  c1.392-0.413,2.412-1.694,2.401-3.217l-0.033-4.706l4.706-0.033c1.845-0.013,3.335-1.524,3.322-3.369  C47.092,19.162,45.591,17.672,43.737,17.672z M19.528,30.095c-0.387-0.373-1-0.373-1.387,0L2.96,44.714V2h31.75v7.829  c-1.392,0.413-2.412,1.694-2.401,3.217l0.033,4.707l-4.706,0.033c-1.845,0.013-3.335,1.523-3.322,3.369  c0.014,1.832,1.515,3.321,3.369,3.321l4.705-0.033l0.033,4.707c0.011,1.46,0.974,2.69,2.289,3.133v12.432L19.528,30.095z   M43.77,22.363l-5.706,0.04c-0.553,0.004-0.997,0.455-0.993,1.007l0.04,5.706c0.005,0.742-0.594,1.35-1.335,1.355l-0.001,0.106  c-0.003,0-0.006-0.002-0.009-0.002v-0.105c-0.736,0-1.34-0.6-1.346-1.335l-0.04-5.707c-0.002-0.266-0.109-0.519-0.298-0.705  c-0.188-0.185-0.439-0.288-0.702-0.288c-0.002,0-0.005,0-0.007,0l-5.715,0.04c-0.736,0-1.34-0.6-1.346-1.335  c-0.005-0.742,0.594-1.35,1.336-1.354l5.706-0.04c0.266-0.002,0.519-0.109,0.705-0.298s0.29-0.444,0.288-0.709l-0.04-5.707  c-0.005-0.742,0.594-1.35,1.346-1.354c0.735,0,1.339,0.599,1.345,1.335l0.039,5.706c0.002,0.265,0.109,0.519,0.298,0.705  c0.188,0.186,0.424,0.281,0.709,0.288l5.716-0.04c0.736,0,1.34,0.6,1.346,1.335C45.111,21.75,44.511,22.357,43.77,22.363z" fill="#FFFFFF"/>
<g>
</g>
<g>
</g>
<g>
</g>
<g>
</g>
<g>
</g>
<g>
</g>
<g>
</g>
<g>
</g>
<g>
</g>
<g>
</g>
<g>
</g>
<g>
</g>
<g>
</g>
<g>
</g>
<g>
</g>
</svg>
