<?xml version="1.0" encoding="iso-8859-1"?>
<!-- Generator: Adobe Illustrator 18.0.0, SVG Export Plug-In . SVG Version: 6.00 Build 0)  -->
<!DOCTYPE svg PUBLIC "-//W3C//DTD SVG 1.1//EN" "http://www.w3.org/Graphics/SVG/1.1/DTD/svg11.dtd">
<svg xmlns="http://www.w3.org/2000/svg" xmlns:xlink="http://www.w3.org/1999/xlink" version="1.1" id="Capa_1" x="0px" y="0px" viewBox="0 0 58.509 58.509" style="enable-background:new 0 0 58.509 58.509;" xml:space="preserve" width="512px" height="512px">
<path d="M48.66,27.614c-0.105-0.175-2.563-4.182-8.775-6.659V7.079c4.835-2.243,6.779-5.426,6.862-5.566  c0.185-0.309,0.189-0.693,0.011-1.007C46.581,0.193,46.249,0,45.889,0H12.62c-0.36,0-0.692,0.193-0.87,0.506  c-0.178,0.313-0.173,0.698,0.011,1.007c0.083,0.14,2.027,3.323,6.862,5.566v13.876c-6.212,2.477-8.67,6.484-8.775,6.659  c-0.185,0.309-0.19,0.694-0.012,1.007c0.178,0.313,0.51,0.507,0.87,0.507h17.548v28.381c0,0.552,0.448,1,1,1s1-0.448,1-1V29.128  h17.548c0.36,0,0.692-0.194,0.87-0.507C48.85,28.308,48.845,27.923,48.66,27.614z M12.803,27.128  c1.268-1.323,3.567-3.23,7.165-4.545c0.395-0.145,0.657-0.52,0.657-0.939V6.43c0-0.401-0.239-0.763-0.608-0.92  C17.483,4.431,15.774,3.043,14.74,2h29.029c-1.034,1.044-2.743,2.432-5.275,3.51c-0.369,0.157-0.608,0.519-0.608,0.92v15.214  c0,0.42,0.262,0.795,0.657,0.939c3.598,1.314,5.896,3.222,7.165,4.545H12.803z" fill="#FFFFFF"/>
<g>
</g>
<g>
</g>
<g>
</g>
<g>
</g>
<g>
</g>
<g>
</g>
<g>
</g>
<g>
</g>
<g>
</g>
<g>
</g>
<g>
</g>
<g>
</g>
<g>
</g>
<g>
</g>
<g>
</g>
</svg>
