<?xml version="1.0" encoding="iso-8859-1"?>
<!-- Generator: Adobe Illustrator 18.0.0, SVG Export Plug-In . SVG Version: 6.00 Build 0)  -->
<!DOCTYPE svg PUBLIC "-//W3C//DTD SVG 1.1//EN" "http://www.w3.org/Graphics/SVG/1.1/DTD/svg11.dtd">
<svg xmlns="http://www.w3.org/2000/svg" xmlns:xlink="http://www.w3.org/1999/xlink" version="1.1" id="Capa_1" x="0px" y="0px" viewBox="0 0 69.85 69.85" style="enable-background:new 0 0 69.85 69.85;" xml:space="preserve" width="512px" height="512px">
<path d="M69.557,35.696L41.023,7.163C39.4,5.54,37.234,4.646,34.925,4.646s-4.476,0.894-6.099,2.517L0.293,35.696  c-0.391,0.391-0.391,1.023,0,1.414s1.023,0.391,1.414,0l4.417-4.417v23.885c0,4.756,3.869,8.625,8.625,8.625h40.352  c4.756,0,8.625-3.869,8.625-8.625V32.693l4.417,4.417c0.195,0.195,0.451,0.293,0.707,0.293s0.512-0.098,0.707-0.293  C69.947,36.719,69.947,36.086,69.557,35.696z M45.093,63.204H24.757V43.127c0-1.287,1.047-2.333,2.334-2.333h15.668  c1.287,0,2.334,1.047,2.334,2.333V63.204z M61.726,56.578c0,3.653-2.972,6.625-6.625,6.625h-8.008V43.127  c0-2.39-1.944-4.333-4.334-4.333H27.091c-2.39,0-4.334,1.944-4.334,4.333v20.077h-8.008c-3.653,0-6.625-2.972-6.625-6.625V30.693  L30.24,8.577c1.245-1.245,2.909-1.931,4.685-1.931s3.439,0.686,4.685,1.931l22.116,22.116V56.578z" fill="#FFFFFF"/>
<g>
</g>
<g>
</g>
<g>
</g>
<g>
</g>
<g>
</g>
<g>
</g>
<g>
</g>
<g>
</g>
<g>
</g>
<g>
</g>
<g>
</g>
<g>
</g>
<g>
</g>
<g>
</g>
<g>
</g>
</svg>
