<?xml version="1.0" encoding="utf-8"?>
<!-- Generator: Adobe Illustrator 19.2.1, SVG Export Plug-In . SVG Version: 6.00 Build 0)  -->
<svg version="1.1" id="Capa_1" xmlns="http://www.w3.org/2000/svg" xmlns:xlink="http://www.w3.org/1999/xlink" x="0px" y="0px"
	 viewBox="0 0 512 512" style="enable-background:new 0 0 512 512;" xml:space="preserve">
<style type="text/css">
	.st0{fill:#FFFFFF;}
</style>
<g>
	<g>
		<path class="st0" d="M298.7,102c-32.2,7.5-60.1,23-80.1,53.5c-4.9-10.2-8.5-18.9-12.9-27c-15.2-27.5-44.2-36.4-72.2-22
			c-6.2,3.2-12.5,7-17.3,11.9c-17.4,17.8-38.1,30-59.9,40.3c-0.4,0-0.8,0-1.3,0.2c-18.9,7.2-61.9,16.2-54,45.3
			c1.2,4.2,7.7,2.4,6.6-1.8c-3.9-14.4,10.6-23,25.6-28.8c18.7-2.9,38.3-6.1,58.1-8.5c19-2.3,34.4,6.2,41.8,23.2
			c27.3,62.7,70.7,112.1,118.8,159.1c15.9,27.5,24.1,58.8,23.8,91c0,5,6.5,5.7,8.5,2.2c0.7,2.6,1.4,5.3,2.1,7.9
			c1.3,5.1,8.5,3.7,8.9-0.8c0.9,2,1.8,3.9,2.7,5.9c0.4,0.9,1,1.4,1.6,1.8c0.3,0.8,0.5,1.7,0.8,2.5c0.2,0.6,0.5,1.1,0.8,1.5
			c1,2.2,3.6,3.9,6.5,2.5c0.9-0.4,1.6-0.9,2.4-1.5c1.2,4.6,2.4,9.3,3.6,13.9c0.8,3,3.6,3.7,5.9,2.9c1.3,4.3,2.7,8.5,4,12.8
			c0.4,1.6,0.8,3.1,1.2,4.7c0.2,0,0.3-0.1,0.5-0.1c0.1,0.1,0.2,0.2,0.3,0.3c0,0.1,0,0.2,0.1,0.4c1,5.8,9.8,3.3,8.8-2.4
			c-3.2-18.5-7.8-36.8-13.7-54.5c-3.6-23.7-7.5-47.3-13.4-70.4c-8.7-34.3-23.4-67.2-37.2-100c-8.7-20.7-9.8-24.9,6.2-35.5
			c2.7-0.3,5.3-0.7,8-1.1c1.8,0,3.5-0.1,5.3-0.1c-0.2,0.1-0.4,0.3-0.6,0.4c6.8-0.2,13.5-0.5,20.1-0.9l1.3,0c0.4,0,0.7-0.1,1.1-0.1
			c61.5-4.2,117-19.4,167.9-62.3c-9.2,0-13.3-0.2-17.4,0c-25.5,1.3-51,2.5-76.5,4.1c-1.5,0.1-3,0.2-4.5,0.4h-14.5
			c35.2-25.7,68.4-53.9,97.9-86.8c15.2-17,28.6-35.6,42.5-53.8c3.6-4.8,5.7-10.7,5.5-19.2c-4.9,2.3-10.2,4-14.6,7
			C437,61.7,369.5,85.5,298.7,102z"/>
	</g>
</g>
</svg>
