<?xml version="1.0" encoding="iso-8859-1"?>
<!-- Generator: Adobe Illustrator 19.1.0, SVG Export Plug-In . SVG Version: 6.00 Build 0)  -->
<svg xmlns="http://www.w3.org/2000/svg" xmlns:xlink="http://www.w3.org/1999/xlink" version="1.1" id="Capa_1" x="0px" y="0px" viewBox="0 0 487.131 487.131" style="enable-background:new 0 0 487.131 487.131;" xml:space="preserve" width="512px" height="512px">
<g>
	<g>
		<path d="M234.826,395.007c4.826,4.826,12.549,4.826,17.375,0c31.854-28.958,63.708-58.882,95.563-87.841    c11.583-10.618-5.792-27.993-17.375-17.375c-25.097,23.167-49.229,46.333-74.327,68.535c0-109.077,0-218.153,0-327.23    c0-15.444-24.132-15.444-24.132,0c0,109.077,0,218.153,0,327.23c-25.097-23.167-50.195-46.333-74.327-68.535    c-11.583-10.618-28.958,6.757-17.375,17.375C172.083,336.116,203.937,366.049,234.826,395.007z" fill="#FFFFFF"/>
		<path d="M484.834,341.917c0-15.444-24.132-15.444-24.132,0c0,21.236,0,42.472,0,63.708c0,17.375,0.965,33.785-21.236,35.715    c-33.785,2.896-69.5,0-103.285,0c-94.597,0-189.195,0-282.827,0c-2.896,0-6.757,0.965-9.653,0    c-16.41-2.896-17.375-15.444-17.375-27.993c0-24.132,0-47.299,0-71.431c0-15.444-24.132-15.444-24.132,0    c0,39.576-16.41,118.729,40.542,123.556c31.854,2.896,64.674,0,96.528,0c100.389,0,201.744,4.826,302.133,0    C502.209,462.577,484.834,381.493,484.834,341.917z" fill="#FFFFFF"/>
	</g>
	<g>
	</g>
	<g>
	</g>
	<g>
	</g>
	<g>
	</g>
	<g>
	</g>
	<g>
	</g>
	<g>
	</g>
	<g>
	</g>
	<g>
	</g>
	<g>
	</g>
	<g>
	</g>
	<g>
	</g>
	<g>
	</g>
	<g>
	</g>
	<g>
	</g>
</g>
<g>
</g>
<g>
</g>
<g>
</g>
<g>
</g>
<g>
</g>
<g>
</g>
<g>
</g>
<g>
</g>
<g>
</g>
<g>
</g>
<g>
</g>
<g>
</g>
<g>
</g>
<g>
</g>
<g>
</g>
</svg>
