<?xml version="1.0" encoding="iso-8859-1"?>
<!-- Generator: Adobe Illustrator 18.0.0, SVG Export Plug-In . SVG Version: 6.00 Build 0)  -->
<!DOCTYPE svg PUBLIC "-//W3C//DTD SVG 1.1//EN" "http://www.w3.org/Graphics/SVG/1.1/DTD/svg11.dtd">
<svg xmlns="http://www.w3.org/2000/svg" xmlns:xlink="http://www.w3.org/1999/xlink" version="1.1" id="Capa_1" x="0px" y="0px" viewBox="0 0 66.65 66.65" style="enable-background:new 0 0 66.65 66.65;" xml:space="preserve" width="512px" height="512px">
<path d="M66.65,18.177c0-5.33-4.336-9.667-9.666-9.667c-3.192,0-6.019,1.562-7.781,3.955H7.336C3.291,12.465,0,15.756,0,19.801  v31.002c0,4.045,3.291,7.336,7.336,7.336h47.296c4.045,0,7.336-3.291,7.336-7.336V26.444C64.768,24.749,66.65,21.683,66.65,18.177z   M59.968,50.804c0,2.942-2.394,5.336-5.336,5.336H7.336C4.394,56.14,2,53.746,2,50.804V19.801c0-2.942,2.394-5.336,5.336-5.336  h40.725c-0.478,1.144-0.744,2.397-0.744,3.712c0,2.095,0.677,4.031,1.814,5.616L34.303,38.621c-0.882,0.882-2.061,1.368-3.319,1.368  c-1.258,0-2.437-0.486-3.318-1.368L7.488,18.444c-0.391-0.391-1.023-0.391-1.414,0s-0.391,1.023,0,1.414l20.177,20.177  c1.26,1.26,2.94,1.954,4.732,1.954c1.793,0,3.474-0.694,4.733-1.954l14.745-14.744c1.721,1.58,4.008,2.553,6.523,2.553  c1.041,0,2.043-0.17,2.983-0.476V50.804z M56.984,25.844c-4.228,0-7.667-3.439-7.667-7.667s3.439-7.667,7.667-7.667  s7.666,3.439,7.666,7.667S61.212,25.844,56.984,25.844z M59.301,21.124c0.01,0.076,0.015,0.171,0.015,0.284  c0,0.109-0.006,0.202-0.018,0.278s-0.028,0.137-0.05,0.182s-0.046,0.077-0.073,0.097s-0.059,0.029-0.094,0.029h-4.184  c-0.031,0-0.061-0.01-0.088-0.029s-0.052-0.052-0.073-0.097s-0.038-0.105-0.05-0.182s-0.018-0.169-0.018-0.278  c0-0.113,0.005-0.208,0.015-0.284s0.025-0.138,0.047-0.185s0.046-0.081,0.073-0.103s0.059-0.032,0.094-0.032h1.412v-4.934  l-1.219,0.674c-0.09,0.043-0.163,0.069-0.22,0.079s-0.102-0.002-0.135-0.035s-0.056-0.091-0.067-0.173s-0.018-0.197-0.018-0.346  c0-0.094,0.002-0.171,0.006-0.231s0.014-0.112,0.029-0.155s0.037-0.078,0.064-0.105s0.064-0.057,0.111-0.088l1.629-1.055  c0.02-0.016,0.044-0.028,0.073-0.038s0.067-0.018,0.114-0.023s0.108-0.01,0.185-0.012s0.175-0.003,0.296-0.003  c0.148,0,0.269,0.003,0.36,0.009s0.161,0.016,0.208,0.029s0.078,0.032,0.094,0.056s0.023,0.053,0.023,0.088v6.264h1.236  c0.035,0,0.067,0.011,0.097,0.032s0.055,0.056,0.076,0.103S59.292,21.048,59.301,21.124z" fill="#FFFFFF"/>
<g>
</g>
<g>
</g>
<g>
</g>
<g>
</g>
<g>
</g>
<g>
</g>
<g>
</g>
<g>
</g>
<g>
</g>
<g>
</g>
<g>
</g>
<g>
</g>
<g>
</g>
<g>
</g>
<g>
</g>
</svg>
