<?xml version="1.0" encoding="iso-8859-1"?>
<!-- Generator: Adobe Illustrator 18.0.0, SVG Export Plug-In . SVG Version: 6.00 Build 0)  -->
<!DOCTYPE svg PUBLIC "-//W3C//DTD SVG 1.1//EN" "http://www.w3.org/Graphics/SVG/1.1/DTD/svg11.dtd">
<svg xmlns="http://www.w3.org/2000/svg" xmlns:xlink="http://www.w3.org/1999/xlink" version="1.1" id="Capa_1" x="0px" y="0px" viewBox="0 0 230.17 230.17" style="enable-background:new 0 0 230.17 230.17;" xml:space="preserve" width="512px" height="512px">
<g>
	<path d="M115.251,138.757L222.447,35.496c-2.427-1.443-5.252-2.411-8.28-2.411H16.5c-3.943,0-7.556,1.531-10.37,3.866   L115.251,138.757z M88.302,79.085H99V52.247c0-2.299,3.43-4.162,6.737-4.162h19.192c3.307,0,6.071,1.863,6.071,4.162v26.838h11.365   c2.345,0,3.81,1.949,2.64,3.361l-26.786,32.482c-1.28,1.543-4.484,1.543-5.765,0l-26.79-32.482   C84.491,81.034,85.957,79.085,88.302,79.085z" fill="#FFFFFF"/>
	<path d="M230,49.585c0-0.263,0.181-0.519,0.169-0.779l-70.24,67.68l70.156,65.518c0.041-0.468-0.085-0.939-0.085-1.418V49.585z" fill="#FFFFFF"/>
	<path d="M0,52.1v128.485c0,1.475,0.339,2.897,0.707,4.256l69.738-67.156L0,52.1z" fill="#FFFFFF"/>
	<path d="M149.207,126.901l-28.674,27.588c-1.451,1.396-3.325,2.096-5.2,2.096c-1.836,0-3.672-0.67-5.113-2.013l-28.596-26.647   L11.01,195.989c1.717,0.617,3.56,1.096,5.49,1.096h197.667c2.866,0,5.554-0.873,7.891-2.175L149.207,126.901z" fill="#FFFFFF"/>
</g>
<g>
</g>
<g>
</g>
<g>
</g>
<g>
</g>
<g>
</g>
<g>
</g>
<g>
</g>
<g>
</g>
<g>
</g>
<g>
</g>
<g>
</g>
<g>
</g>
<g>
</g>
<g>
</g>
<g>
</g>
</svg>
